<svg xmlns="http://www.w3.org/2000/svg" width="104" height="104" viewBox="0 0 104 104">
<circle cx="52" cy="52" r="52" fill="#FF521D"/>
<path d="M68.4459 24.9438C69.8639 24.1762 71.6471 23.7178 73.4821 24.2163C73.8278 24.2966 74.1339 24.3916 74.4362 24.5024L75.9186 25.0464L75.5104 26.5727C75.3469 27.1827 75.202 27.723 75.0387 28.3325L74.6442 29.8042L73.1354 29.5972C73.0242 29.5819 72.9246 29.5753 72.8082 29.5747C72.2474 29.5865 71.7542 29.8645 71.2662 30.6772C70.8883 31.307 70.5939 32.1486 70.3815 33.1079C74.871 36.0331 77.8444 41.0994 77.8444 46.8638C77.8443 49.5292 77.2072 52.0505 76.0758 54.2798C71.5108 64.3996 54.1783 84.8815 23.4655 79.0083C21.8797 78.7048 20.9918 77.4165 20.902 76.1245C20.8141 74.8561 21.479 73.487 22.8981 72.8813C31.0698 69.394 35.5884 65.7091 38.5983 61.2329C41.6553 56.6866 43.2606 51.1907 45.3287 43.7251C46.7942 36.1645 53.4462 30.4547 61.4362 30.4546L61.8834 30.4604C62.4398 30.4755 62.9894 30.519 63.5309 30.5884C63.9515 29.7288 64.4424 28.8863 65.0211 28.0659L65.1745 27.8423C65.9623 26.731 67.1108 25.6667 68.4459 24.9438Z" fill="#18181A"/>
</svg>
